<?xml version="1.0" encoding="UTF-8" standalone="no"?>
<svg
   xmlns:svg="http://www.w3.org/2000/svg"
   xmlns="http://www.w3.org/2000/svg"
   width="16"
   version="1.1"
   height="16">
  <g
     transform="translate(-223,-649)"
     id="layer1">
    <path
       style="fill:#bebebe"
       d="m 230.5002,649.01339 c -4.13029,0 -7.48661,3.35631 -7.48661,7.48661 0,4.13029 3.35632,7.48661 7.48661,7.48661 4.13029,0 7.4866,-3.35632 7.4866,-7.48661 0,-4.1303 -3.35631,-7.48661 -7.4866,-7.48661 z m 0,1.97322 c 3.04941,0 5.51339,2.46398 5.51339,5.51339 0,3.04941 -2.46398,5.51339 -5.51339,5.51339 -3.04941,0 -5.5134,-2.46398 -5.5134,-5.51339 0,-3.04941 2.46399,-5.51339 5.5134,-5.51339 z" />
    <path
       d="m 230.74971,651.70365 a 0.50005,0.50005 0 0 0 -0.7513,0.44194 l 0.0221,4.35312 a 0.50005,0.50005 0 0 0 0.0221,0.0663 0.50005,0.50005 0 0 0 0.0221,0.0663 0.50005,0.50005 0 0 0 0.0221,0.0663 0.50005,0.50005 0 0 0 0.0221,0.0221 0.50005,0.50005 0 0 0 0.0221,0.0663 0.50005,0.50005 0 0 0 0.0663,0.0663 l 0.11048,0.11049 1.96664,1.96664 a 0.50005,0.50005 0 1 0 0.70711,-0.70711 l -1.94454,-1.94454 -0.0663,-4.13216 a 0.50005,0.50005 0 0 0 -0.22097,-0.44194 z"
       style="fill:#bebebe" />
  </g>
</svg>
